<?xml version="1.0" encoding="utf-8"?>
<!-- Generator: Adobe Illustrator 24.1.0, SVG Export Plug-In . SVG Version: 6.00 Build 0)  -->
<svg version="1.1" id="Layer_1" xmlns="http://www.w3.org/2000/svg" xmlns:xlink="http://www.w3.org/1999/xlink" x="0px" y="0px"
	 viewBox="0 0 960 560" style="enable-background:new 0 0 960 560;" xml:space="preserve">
<style type="text/css">
	.st0{fill:none;stroke:#FF0001;stroke-width:5;stroke-miterlimit:10;}
	.st1{fill:#FF0001;stroke:#FF0001;stroke-width:5;stroke-miterlimit:10;}
	.st2{fill:#355C7D;stroke:#355C7D;stroke-miterlimit:10;}
	.st3{fill:#355C7D;stroke:#355C7D;stroke-width:5;stroke-miterlimit:10;}
</style>
<g>
	<path class="st0" d="M326.61,183.79c-22.18,0-41.26,18.04-50.11,36.88c-8.85-18.84-27.94-36.88-50.12-36.88
		c-30.57,0-55.39,24.82-55.39,55.39c0,62.2,62.74,78.51,105.5,140c40.42-61.11,105.5-79.79,105.5-140
		C382,208.61,357.18,183.79,326.61,183.79L326.61,183.79z"/>
	<polyline class="st0" points="319.67,279.61 291,279.61 279.28,304.37 268.85,262.67 253.22,310.88 241.49,223.59 221.42,299.3 
		209.68,255.01 193.09,278.36 180.25,278.31 	"/>
	<circle class="st1" cx="327.49" cy="279.61" r="6.51"/>
</g>
<g>
	<g>
		<path class="st2" d="M430.35,235.76h6.12v19.73h19.59v-19.73h6.12V283h-6.12v-22.18h-19.59V283h-6.12V235.76z"/>
		<path class="st2" d="M472.76,265.43c0-11.38,8.5-18.29,17.86-18.29c10.08,0,15.99,6.55,15.99,16.42c0,1.37-0.14,2.66-0.29,3.6
			h-29.59v-4.61h26.07l-1.51,1.66c0-8.28-4.1-12.39-10.51-12.39c-6.48,0-12.1,4.9-12.1,13.61c0,9.07,5.9,13.68,13.68,13.68
			c4.18,0,7.49-1.3,10.66-3.31l2.16,3.89c-3.46,2.3-7.92,4.18-13.54,4.18C481.12,283.86,472.76,277.1,472.76,265.43z"/>
		<path class="st2" d="M516.83,273.93c0-7.85,7.34-11.67,25.42-13.1c-0.22-4.75-2.52-8.79-9.29-8.79c-4.54,0-9,2.16-12.24,4.18
			l-2.38-4.03c3.6-2.3,9.5-5.04,15.63-5.04c9.58,0,14.26,5.69,14.26,14.4V283h-4.97l-0.5-4.75h-0.22
			c-3.82,3.02-8.86,5.62-13.75,5.62C522.23,283.86,516.83,280.19,516.83,273.93z M542.24,273.85v-9.07
			c-14.98,1.15-19.51,4.1-19.51,8.71c0,3.96,3.6,5.54,7.63,5.54C534.32,279.04,538.21,277.17,542.24,273.85z"/>
		<path class="st2" d="M564.71,248h4.97l0.58,8.28h0.14c3.67-5.69,9.14-9.14,15.63-9.14c2.59,0,4.75,0.36,6.91,1.44l-1.37,5.11
			c-2.45-0.79-3.75-1.15-6.48-1.15c-5.26,0-10.23,2.66-14.4,10.01V283h-5.98V248z"/>
		<path class="st2" d="M612.3,269.39v-16.56h-9.94v-4.46l10.15-0.36l0.79-11.23h4.97V248h17.14v4.82h-17.14v16.63
			c0,6.26,2.09,9.5,8.86,9.5c3.24,0,5.83-0.65,8.35-1.58l1.3,4.39c-3.17,1.15-6.55,2.09-10.95,2.09
			C615.61,283.86,612.3,278.03,612.3,269.39z"/>
		<path class="st2" d="M647.79,235.76h13.39c9.65,0,16.2,3.24,16.2,11.52c0,4.68-2.67,8.86-8.28,10.3v0.29
			c6.91,1.08,10.95,4.82,10.95,11.31c0,9.29-7.2,13.83-17.79,13.83h-14.47V235.76z M660.18,255.64c8.06,0,11.3-2.59,11.3-7.85
			c0-5.11-3.74-6.98-11.02-6.98h-6.7v14.83H660.18z M661.4,277.96c8.07,0,12.75-2.66,12.75-9.07c0-5.83-4.46-8.21-12.75-8.21h-7.63
			v17.28H661.4z"/>
		<path class="st2" d="M688.69,297.33l1.22-4.75c0.94,0.29,2.09,0.5,3.17,0.5c4.9,0,7.85-3.1,9.58-7.42l1.01-2.59L687.39,248h6.05
			l8.5,19.3c1.37,3.1,2.88,6.77,4.32,10.15h0.29c1.22-3.31,2.59-6.98,3.75-10.15l7.56-19.3h5.76l-15.48,37.88
			c-2.59,6.91-6.84,12.17-14.83,12.17C691.64,298.05,689.91,297.76,688.69,297.33z"/>
		<path class="st2" d="M741.89,269.39v-16.56h-9.94v-4.46l10.15-0.36l0.79-11.23h4.97V248h17.14v4.82h-17.14v16.63
			c0,6.26,2.09,9.5,8.86,9.5c3.24,0,5.83-0.65,8.35-1.58l1.3,4.39c-3.17,1.15-6.55,2.09-10.95,2.09
			C745.21,283.86,741.89,278.03,741.89,269.39z"/>
		<path class="st2" d="M775.16,265.43c0-11.38,8.5-18.29,17.86-18.29c10.08,0,15.99,6.55,15.99,16.42c0,1.37-0.14,2.66-0.29,3.6
			h-29.59v-4.61h26.07l-1.51,1.66c0-8.28-4.1-12.39-10.51-12.39c-6.48,0-12.1,4.9-12.1,13.61c0,9.07,5.9,13.68,13.68,13.68
			c4.18,0,7.49-1.3,10.66-3.31l2.16,3.89c-3.46,2.3-7.92,4.18-13.54,4.18C783.51,283.86,775.16,277.1,775.16,265.43z"/>
	</g>
</g>
<line class="st3" x1="406.5" y1="208.5" x2="406.5" y2="308.5"/>
</svg>
