<?xml version="1.0" standalone="no"?>
<!DOCTYPE svg PUBLIC "-//W3C//DTD SVG 20010904//EN"
 "http://www.w3.org/TR/2001/REC-SVG-20010904/DTD/svg10.dtd">
<svg version="1.0" xmlns="http://www.w3.org/2000/svg"
 width="192.000000pt" height="192.000000pt" viewBox="0 0 192.000000 192.000000"
 preserveAspectRatio="xMidYMid meet">
<metadata>
Created by potrace 1.16, written by Peter Selinger 2001-2019
</metadata>
<g transform="translate(0.000000,192.000000) scale(0.100000,-0.100000)"
fill="#000000" stroke="none">
<path d="M388 1904 c-117 -28 -220 -104 -297 -219 -79 -119 -91 -161 -91 -328
0 -193 20 -259 129 -441 50 -82 145 -184 472 -502 141 -138 239 -249 302 -344
24 -36 50 -66 59 -68 10 -2 31 21 59 66 72 115 160 212 462 513 158 157 287
292 287 298 0 7 14 32 30 57 17 24 50 83 73 131 l42 88 3 183 4 183 -31 64
c-60 130 -133 213 -236 271 -141 78 -306 86 -436 19 -70 -37 -162 -121 -209
-192 l-48 -73 -41 63 c-129 198 -323 282 -533 231z m222 -56 c66 -20 111 -49
184 -118 58 -56 82 -88 117 -159 24 -50 47 -90 51 -90 4 -1 21 29 39 67 47 96
91 154 166 216 174 144 384 129 566 -43 20 -19 37 -38 37 -43 0 -4 14 -29 30
-55 99 -156 94 -378 -14 -589 -53 -105 -145 -218 -305 -370 -288 -276 -385
-381 -471 -504 l-49 -71 -55 78 c-51 74 -243 275 -491 516 -109 106 -160 162
-223 244 l-33 43 43 0 c45 0 55 9 96 90 7 14 23 37 36 53 l22 27 42 -167 c23
-93 44 -186 47 -208 6 -41 20 -73 29 -65 8 9 116 418 116 442 1 13 11 61 24
108 19 67 25 80 30 60 3 -14 26 -180 51 -370 25 -190 47 -349 49 -355 5 -14 8
-6 80 219 35 109 66 195 68 190 3 -5 22 -78 43 -161 21 -87 42 -153 49 -153
10 0 46 69 46 89 0 4 18 47 40 95 l40 86 106 0 c100 0 108 -1 130 -25 44 -47
113 -45 139 5 21 40 19 82 -6 114 -16 21 -29 26 -64 26 -36 0 -48 -5 -68 -30
l-26 -30 -125 0 -126 0 -19 -42 c-11 -24 -25 -58 -31 -75 -7 -18 -15 -33 -19
-33 -4 0 -26 80 -50 178 -24 97 -47 180 -50 185 -4 4 -36 -84 -72 -195 l-64
-202 -7 54 c-4 30 -12 107 -17 170 -16 192 -73 581 -85 577 -5 -2 -23 -57 -39
-123 -79 -323 -142 -564 -148 -564 -3 0 -12 28 -18 63 -24 123 -64 267 -75
267 -6 0 -27 -25 -46 -55 -105 -165 -129 -195 -161 -195 -27 0 -33 6 -54 53
-60 131 -78 325 -41 437 85 254 321 402 536 338z"/>
</g>
</svg>
